<?xml version="1.0" standalone="no"?>
<!DOCTYPE svg PUBLIC "-//W3C//DTD SVG 1.1//EN" "http://www.w3.org/Graphics/SVG/1.1/DTD/svg11.dtd">
<!--Generator: Xara Designer (www.xara.com), SVG filter version: 6.3.0.4-->
<svg stroke-width="0.501" stroke-linejoin="bevel" fill-rule="evenodd" xmlns:xlink="http://www.w3.org/1999/xlink" xmlns="http://www.w3.org/2000/svg" version="1.1" overflow="visible" width="121.048pt" height="36.653pt" viewBox="0 0 121.048 36.653">
 <defs>
	</defs>
 <g id="Document" fill="none" stroke="black" font-family="Times New Roman" font-size="16" transform="scale(1 -1)">
  <g id="Spread" transform="translate(0 -36.653)">
   <g id="Layer 1">
    <path d="M 13.554,13.625 L 29.59,13.625 C 28.978,12.167 28.091,10.829 26.958,9.697 C 22.172,4.912 14.387,4.912 9.602,9.697 C 4.816,14.482 4.816,22.267 9.602,27.053 C 14.387,31.837 22.172,31.837 26.958,27.053 L 29.203,29.296 C 23.18,35.318 13.38,35.318 7.357,29.296 C 1.334,23.273 1.334,13.475 7.357,7.453 C 10.369,4.442 14.325,2.935 18.279,2.935 C 22.235,2.935 26.19,4.442 29.203,7.453 C 30.94,9.192 32.228,11.307 32.976,13.625 L 34.118,13.625 L 34.118,11.399 L 39.519,16.798 L 16.728,16.798 L 13.554,13.625 Z" fill="#ffffff" stroke="none" stroke-width="0.372" fill-rule="nonzero" stroke-linejoin="miter" marker-start="none" marker-end="none" stroke-miterlimit="79.8403193612775"/>
    <path d="M 19.88,19.951 L 36.345,19.951 L 39.519,23.124 L 25.279,23.124 L 25.279,25.35 L 19.88,19.951 Z" fill="#ffffff" stroke="none" stroke-width="0.372" fill-rule="nonzero" stroke-linejoin="miter" marker-start="none" marker-end="none" stroke-miterlimit="79.8403193612775"/>
    <path d="M 46.955,18.374 C 46.918,20.115 47.54,21.604 48.82,22.842 C 50.102,24.079 51.643,24.687 53.445,24.663 C 55.614,24.663 57.319,23.786 58.557,22.032 L 56.791,20.581 C 55.934,21.769 54.805,22.364 53.409,22.364 C 52.256,22.364 51.319,21.99 50.594,21.242 C 49.872,20.496 49.511,19.538 49.511,18.374 C 49.511,17.184 49.885,16.211 50.633,15.451 C 51.38,14.69 52.354,14.31 53.557,14.31 C 54.965,14.31 56.032,14.812 56.755,15.818 L 56.755,16.81 L 53.409,16.81 L 53.409,18.963 L 59.237,18.963 L 59.237,15.376 C 58.673,14.384 57.883,13.588 56.866,12.987 C 55.86,12.387 54.719,12.085 53.445,12.085 C 51.667,12.049 50.136,12.652 48.847,13.897 C 47.561,15.141 46.93,16.633 46.955,18.374 Z" fill="#ffffff" stroke="none" stroke-width="0.372" fill-rule="nonzero" stroke-linejoin="miter" marker-start="none" marker-end="none" stroke-miterlimit="79.8403193612775"/>
    <path d="M 71.041,18.374 C 71.041,19.526 70.669,20.479 69.928,21.234 C 69.186,21.988 68.257,22.364 67.143,22.364 C 66.015,22.364 65.082,21.99 64.348,21.242 C 63.612,20.496 63.245,19.538 63.245,18.374 C 63.245,17.209 63.612,16.252 64.348,15.506 C 65.082,14.758 66.015,14.384 67.143,14.384 C 68.257,14.384 69.186,14.758 69.928,15.506 C 70.669,16.252 71.041,17.209 71.041,18.374 Z M 60.689,18.374 C 60.664,20.103 61.291,21.592 62.574,22.842 C 63.855,24.093 65.371,24.7 67.124,24.663 C 68.877,24.7 70.4,24.093 71.693,22.842 C 72.987,21.592 73.621,20.103 73.597,18.374 C 73.621,16.646 72.987,15.156 71.693,13.906 C 70.4,12.656 68.877,12.049 67.124,12.085 C 65.371,12.049 63.855,12.656 62.574,13.906 C 61.291,15.156 60.664,16.646 60.689,18.374 Z" fill="#ffffff" stroke="none" stroke-width="0.372" fill-rule="nonzero" stroke-linejoin="miter" marker-start="none" marker-end="none" stroke-miterlimit="79.8403193612775"/>
    <path d="M 75.693,12.307 L 75.693,24.441 L 78.175,24.441 L 78.175,14.55 L 83.488,14.55 L 83.488,12.307 L 75.693,12.307 Z" fill="#ffffff" stroke="none" stroke-width="0.372" fill-rule="nonzero" stroke-linejoin="miter" marker-start="none" marker-end="none" stroke-miterlimit="79.8403193612775"/>
    <path d="M 87.811,14.55 L 89.282,14.55 C 90.506,14.55 91.494,14.901 92.243,15.608 C 92.988,16.312 93.363,17.247 93.363,18.412 C 93.363,19.588 92.994,20.514 92.259,21.188 C 91.524,21.862 90.532,22.199 89.282,22.199 L 87.811,22.199 L 87.811,14.55 Z M 85.329,12.307 L 85.329,24.441 L 89.299,24.441 C 91.237,24.467 92.83,23.912 94.08,22.778 C 95.331,21.644 95.944,20.189 95.919,18.412 C 95.944,16.646 95.325,15.181 94.062,14.018 C 92.801,12.851 91.211,12.283 89.299,12.307 L 85.329,12.307 Z" fill="#ffffff" stroke="none" stroke-width="0.372" fill-rule="nonzero" stroke-linejoin="miter" marker-start="none" marker-end="none" stroke-miterlimit="79.8403193612775"/>
    <path d="M 98.014,12.307 L 98.014,24.441 L 106.177,24.441 L 106.177,22.198 L 100.497,22.198 L 100.497,19.734 L 104.67,19.734 L 104.67,17.619 L 100.497,17.619 L 100.497,14.55 L 106.399,14.55 L 106.399,12.307 L 98.014,12.307 Z" fill="#ffffff" stroke="none" stroke-width="0.372" fill-rule="nonzero" stroke-linejoin="miter" marker-start="none" marker-end="none" stroke-miterlimit="79.8403193612775"/>
    <path d="M 118.185,12.307 L 115.37,12.307 L 112.798,16.333 L 110.223,12.307 L 107.391,12.307 L 111.419,18.484 L 107.631,24.441 L 110.464,24.441 L 112.798,20.617 L 115.115,24.441 L 117.927,24.441 L 114.194,18.484 L 118.185,12.307 Z" fill="#ffffff" stroke="none" stroke-width="0.372" fill-rule="nonzero" stroke-linejoin="miter" marker-start="none" marker-end="none" stroke-miterlimit="79.8403193612775"/>
    <path d="M 48.441,6.027 C 48.431,6.539 48.613,6.976 48.989,7.34 C 49.366,7.703 49.819,7.88 50.347,7.875 C 50.986,7.875 51.487,7.616 51.85,7.102 L 51.331,6.675 C 51.08,7.025 50.75,7.199 50.336,7.199 C 49.999,7.199 49.722,7.089 49.511,6.869 C 49.298,6.65 49.193,6.367 49.193,6.027 C 49.193,5.679 49.302,5.391 49.523,5.169 C 49.741,4.944 50.028,4.832 50.381,4.832 C 50.795,4.832 51.107,4.981 51.322,5.275 L 51.322,5.567 L 50.336,5.567 L 50.336,6.199 L 52.05,6.199 L 52.05,5.146 C 51.884,4.854 51.652,4.62 51.353,4.444 C 51.058,4.267 50.722,4.178 50.347,4.178 C 49.826,4.169 49.376,4.346 48.998,4.71 C 48.62,5.076 48.434,5.515 48.441,6.027 Z" fill="#ffffff" stroke="none" stroke-width="0.372" fill-rule="nonzero" stroke-linejoin="miter" marker-start="none" marker-end="none" stroke-miterlimit="79.8403193612775"/>
    <path d="M 55.518,6.027 C 55.518,6.366 55.409,6.645 55.19,6.866 C 54.973,7.089 54.699,7.199 54.371,7.199 C 54.04,7.199 53.767,7.089 53.551,6.869 C 53.334,6.65 53.226,6.367 53.226,6.027 C 53.226,5.685 53.334,5.403 53.551,5.185 C 53.767,4.964 54.04,4.854 54.371,4.854 C 54.699,4.854 54.973,4.964 55.19,5.185 C 55.409,5.403 55.518,5.685 55.518,6.027 Z M 52.475,6.027 C 52.469,6.536 52.653,6.973 53.029,7.34 C 53.406,7.707 53.851,7.885 54.367,7.875 C 54.88,7.885 55.328,7.707 55.71,7.34 C 56.089,6.973 56.276,6.536 56.268,6.027 C 56.276,5.519 56.089,5.08 55.71,4.714 C 55.328,4.347 54.88,4.169 54.367,4.178 C 53.851,4.169 53.406,4.347 53.029,4.714 C 52.653,5.08 52.469,5.519 52.475,6.027 Z" fill="#ffffff" stroke="none" stroke-width="0.372" fill-rule="nonzero" stroke-linejoin="miter" marker-start="none" marker-end="none" stroke-miterlimit="79.8403193612775"/>
    <path d="M 56.885,4.244 L 56.885,7.809 L 57.614,7.809 L 57.614,4.903 L 59.175,4.903 L 59.175,4.244 L 56.885,4.244 Z" fill="#ffffff" stroke="none" stroke-width="0.372" fill-rule="nonzero" stroke-linejoin="miter" marker-start="none" marker-end="none" stroke-miterlimit="79.8403193612775"/>
    <path d="M 60.445,4.905 L 60.876,4.905 C 61.237,4.905 61.529,5.008 61.747,5.214 C 61.965,5.423 62.077,5.697 62.077,6.038 C 62.077,6.383 61.967,6.658 61.751,6.855 C 61.535,7.052 61.244,7.152 60.876,7.152 L 60.445,7.152 L 60.445,4.905 Z M 59.716,4.246 L 59.716,7.811 L 60.882,7.811 C 61.452,7.818 61.919,7.655 62.286,7.321 C 62.653,6.988 62.833,6.561 62.828,6.038 C 62.833,5.521 62.652,5.09 62.281,4.749 C 61.911,4.405 61.445,4.238 60.882,4.246 L 59.716,4.246 Z" fill="#ffffff" stroke="none" stroke-width="0.372" fill-rule="nonzero" stroke-linejoin="miter" marker-start="none" marker-end="none" stroke-miterlimit="79.8403193612775"/>
    <path d="M 64.955,4.244 L 64.955,7.809 L 67.353,7.809 L 67.353,7.15 L 65.684,7.15 L 65.684,6.427 L 66.909,6.427 L 66.909,5.806 L 65.684,5.806 L 65.684,4.903 L 67.418,4.903 L 67.418,4.244 L 64.955,4.244 Z" fill="#ffffff" stroke="none" stroke-width="0.372" fill-rule="nonzero" stroke-linejoin="miter" marker-start="none" marker-end="none" stroke-miterlimit="79.8403193612775"/>
    <path d="M 70.882,4.244 L 70.055,4.244 L 69.3,5.427 L 68.543,4.244 L 67.712,4.244 L 68.895,6.061 L 67.781,7.809 L 68.615,7.809 L 69.3,6.688 L 69.981,7.809 L 70.806,7.809 L 69.709,6.061 L 70.882,4.244 Z" fill="#ffffff" stroke="none" stroke-width="0.372" fill-rule="nonzero" stroke-linejoin="miter" marker-start="none" marker-end="none" stroke-miterlimit="79.8403193612775"/>
    <path d="M 71.028,6.027 C 71.021,6.539 71.206,6.977 71.584,7.344 C 71.962,7.708 72.411,7.885 72.93,7.875 C 73.268,7.875 73.575,7.796 73.851,7.64 C 74.125,7.483 74.342,7.266 74.502,6.988 L 73.95,6.599 C 73.694,6.999 73.353,7.199 72.93,7.199 C 72.599,7.199 72.324,7.087 72.107,6.864 C 71.887,6.641 71.779,6.36 71.779,6.02 C 71.779,5.683 71.887,5.403 72.107,5.185 C 72.324,4.964 72.599,4.854 72.93,4.854 C 73.353,4.854 73.694,5.055 73.95,5.454 L 74.502,5.065 C 74.346,4.787 74.129,4.57 73.852,4.414 C 73.577,4.257 73.265,4.178 72.923,4.178 C 72.403,4.169 71.951,4.346 71.575,4.71 C 71.199,5.076 71.015,5.515 71.028,6.027 Z" fill="#ffffff" stroke="none" stroke-width="0.372" fill-rule="nonzero" stroke-linejoin="miter" marker-start="none" marker-end="none" stroke-miterlimit="79.8403193612775"/>
    <path d="M 75.123,4.244 L 75.123,7.809 L 75.851,7.809 L 75.851,6.443 L 77.43,6.443 L 77.43,7.809 L 78.159,7.809 L 78.159,4.244 L 77.43,4.244 L 77.43,5.784 L 75.851,5.784 L 75.851,4.244 L 75.123,4.244 Z" fill="#ffffff" stroke="none" stroke-width="0.372" fill-rule="nonzero" stroke-linejoin="miter" marker-start="none" marker-end="none" stroke-miterlimit="79.8403193612775"/>
    <path d="M 80.822,5.309 L 80.346,6.514 L 79.87,5.309 L 80.822,5.309 Z M 81.276,4.244 L 81.075,4.71 L 79.615,4.71 L 79.417,4.244 L 78.634,4.244 L 80.229,7.876 L 80.471,7.876 L 82.059,4.244 L 81.276,4.244 Z" fill="#ffffff" stroke="none" stroke-width="0.372" fill-rule="nonzero" stroke-linejoin="miter" marker-start="none" marker-end="none" stroke-miterlimit="79.8403193612775"/>
    <path d="M 84.852,7.811 L 85.581,7.811 L 85.581,4.181 L 85.338,4.181 L 83.274,6.383 L 83.274,4.246 L 82.545,4.246 L 82.545,7.876 L 82.783,7.876 L 84.852,5.682 L 84.852,7.811 Z" fill="#ffffff" stroke="none" stroke-width="0.372" fill-rule="nonzero" stroke-linejoin="miter" marker-start="none" marker-end="none" stroke-miterlimit="79.8403193612775"/>
    <path d="M 86.193,6.027 C 86.181,6.539 86.364,6.976 86.741,7.34 C 87.117,7.703 87.571,7.88 88.099,7.875 C 88.737,7.875 89.237,7.616 89.601,7.102 L 89.082,6.675 C 88.831,7.025 88.5,7.199 88.089,7.199 C 87.751,7.199 87.474,7.089 87.263,6.869 C 87.05,6.65 86.944,6.367 86.944,6.027 C 86.944,5.679 87.053,5.391 87.273,5.169 C 87.494,4.944 87.779,4.832 88.133,4.832 C 88.545,4.832 88.859,4.981 89.073,5.275 L 89.073,5.567 L 88.089,5.567 L 88.089,6.199 L 89.803,6.199 L 89.803,5.146 C 89.634,4.854 89.403,4.62 89.104,4.444 C 88.81,4.267 88.474,4.178 88.099,4.178 C 87.579,4.169 87.127,4.346 86.749,4.71 C 86.371,5.076 86.185,5.515 86.193,6.027 Z" fill="#ffffff" stroke="none" stroke-width="0.372" fill-rule="nonzero" stroke-linejoin="miter" marker-start="none" marker-end="none" stroke-miterlimit="79.8403193612775"/>
    <path d="M 90.432,4.244 L 90.432,7.809 L 92.83,7.809 L 92.83,7.15 L 91.161,7.15 L 91.161,6.427 L 92.386,6.427 L 92.386,5.806 L 91.161,5.806 L 91.161,4.903 L 92.895,4.903 L 92.895,4.244 L 90.432,4.244 Z" fill="#ffffff" stroke="none" stroke-width="0.372" fill-rule="nonzero" stroke-linejoin="miter" marker-start="none" marker-end="none" stroke-miterlimit="79.8403193612775"/>
    <path d="M 95.77,7.168 L 95.77,6.146 L 96.38,6.146 C 96.55,6.146 96.682,6.194 96.779,6.285 C 96.873,6.381 96.921,6.505 96.921,6.659 C 96.921,6.811 96.871,6.933 96.773,7.026 C 96.674,7.12 96.544,7.168 96.38,7.168 L 95.77,7.168 Z M 98.049,4.244 L 97.228,4.244 L 96.304,5.503 L 95.77,5.503 L 95.77,4.244 L 95.041,4.244 L 95.041,7.811 L 96.38,7.811 C 96.755,7.811 97.063,7.703 97.304,7.493 C 97.546,7.278 97.666,7.003 97.666,6.659 C 97.666,6.435 97.611,6.235 97.502,6.056 C 97.392,5.88 97.237,5.741 97.041,5.644 L 98.049,4.244 Z" fill="#ffffff" stroke="none" stroke-width="0.372" fill-rule="nonzero" stroke-linejoin="miter" marker-start="none" marker-end="none" stroke-miterlimit="79.8403193612775"/>
    <path d="M 101.255,6.027 C 101.255,6.366 101.145,6.645 100.927,6.866 C 100.71,7.089 100.436,7.199 100.108,7.199 C 99.778,7.199 99.504,7.089 99.288,6.869 C 99.071,6.65 98.965,6.367 98.965,6.027 C 98.965,5.685 99.071,5.403 99.288,5.185 C 99.504,4.964 99.778,4.854 100.108,4.854 C 100.436,4.854 100.71,4.964 100.927,5.185 C 101.145,5.403 101.255,5.685 101.255,6.027 Z M 98.213,6.027 C 98.206,6.536 98.39,6.973 98.767,7.34 C 99.143,7.707 99.59,7.885 100.104,7.875 C 100.619,7.885 101.066,7.707 101.446,7.34 C 101.827,6.973 102.013,6.536 102.005,6.027 C 102.013,5.519 101.827,5.08 101.446,4.714 C 101.066,4.347 100.619,4.169 100.104,4.178 C 99.59,4.169 99.143,4.347 98.767,4.714 C 98.39,5.08 98.206,5.519 98.213,6.027 Z" fill="#ffffff" stroke="none" stroke-width="0.372" fill-rule="nonzero" stroke-linejoin="miter" marker-start="none" marker-end="none" stroke-miterlimit="79.8403193612775"/>
    <path d="M 104.663,5.32 C 104.663,5.457 104.62,5.566 104.527,5.648 C 104.438,5.727 104.314,5.769 104.156,5.769 L 103.323,5.769 L 103.323,4.87 L 104.156,4.87 C 104.314,4.87 104.438,4.911 104.527,4.99 C 104.62,5.068 104.663,5.178 104.663,5.32 Z M 103.827,7.184 L 103.323,7.184 L 103.323,6.367 L 103.827,6.367 C 103.974,6.367 104.087,6.405 104.169,6.476 C 104.251,6.547 104.291,6.648 104.291,6.778 C 104.291,6.905 104.251,7.004 104.169,7.075 C 104.087,7.149 103.974,7.184 103.827,7.184 Z M 105.381,5.292 C 105.381,4.987 105.273,4.735 105.052,4.54 C 104.833,4.342 104.553,4.244 104.209,4.244 L 102.622,4.244 L 102.622,7.811 L 103.886,7.811 C 104.216,7.811 104.489,7.717 104.699,7.531 C 104.91,7.347 105.014,7.107 105.014,6.817 C 105.014,6.554 104.928,6.34 104.751,6.172 C 105.171,6.019 105.381,5.724 105.381,5.292 Z" fill="#ffffff" stroke="none" stroke-width="0.372" fill-rule="nonzero" stroke-linejoin="miter" marker-start="none" marker-end="none" stroke-miterlimit="79.8403193612775"/>
    <path d="M 108.812,6.027 C 108.812,6.366 108.704,6.645 108.484,6.866 C 108.267,7.089 107.994,7.199 107.667,7.199 C 107.337,7.199 107.061,7.089 106.847,6.869 C 106.63,6.65 106.521,6.367 106.521,6.027 C 106.521,5.685 106.63,5.403 106.847,5.185 C 107.061,4.964 107.337,4.854 107.667,4.854 C 107.994,4.854 108.267,4.964 108.484,5.185 C 108.704,5.403 108.812,5.685 108.812,6.027 Z M 105.771,6.027 C 105.762,6.536 105.949,6.973 106.324,7.34 C 106.701,7.707 107.147,7.885 107.663,7.875 C 108.177,7.885 108.625,7.707 109.004,7.34 C 109.384,6.973 109.571,6.536 109.564,6.027 C 109.571,5.519 109.384,5.08 109.004,4.714 C 108.625,4.347 108.177,4.169 107.663,4.178 C 107.147,4.169 106.701,4.347 106.324,4.714 C 105.949,5.08 105.762,5.519 105.771,6.027 Z" fill="#ffffff" stroke="none" stroke-width="0.372" fill-rule="nonzero" stroke-linejoin="miter" marker-start="none" marker-end="none" stroke-miterlimit="79.8403193612775"/>
    <path d="M 110.913,4.244 L 110.913,7.15 L 109.774,7.15 L 109.774,7.809 L 112.789,7.809 L 112.789,7.15 L 111.642,7.15 L 111.642,4.244 L 110.913,4.244 Z" fill="#ffffff" stroke="none" stroke-width="0.372" fill-rule="nonzero" stroke-linejoin="miter" marker-start="none" marker-end="none" stroke-miterlimit="79.8403193612775"/>
   </g>
  </g>
 </g>
</svg>
